<?xml version="1.0" encoding="UTF-8"?>
<!DOCTYPE svg PUBLIC "-//W3C//DTD SVG 1.1//EN" "http://www.w3.org/Graphics/SVG/1.1/DTD/svg11.dtd">
<svg xmlns="http://www.w3.org/2000/svg" version="1.1" width="1000px" height="1000px" style="shape-rendering:geometricPrecision; text-rendering:geometricPrecision; image-rendering:optimizeQuality; fill-rule:evenodd; clip-rule:evenodd" xmlns:xlink="http://www.w3.org/1999/xlink">
<g><path style="opacity:0.997" fill="#fefefe" d="M 469.5,-0.5 C 489.5,-0.5 509.5,-0.5 529.5,-0.5C 683.884,12.0928 808.051,79.4261 902,201.5C 960.088,281.377 992.588,370.711 999.5,469.5C 999.5,489.5 999.5,509.5 999.5,529.5C 987.072,681.881 921.072,805.048 801.5,899C 720.227,959.485 628.893,992.985 527.5,999.5C 508.833,999.5 490.167,999.5 471.5,999.5C 316.301,987.498 191.468,920.165 97,797.5C 38.875,717.636 6.37499,628.303 -0.5,529.5C -0.5,509.5 -0.5,489.5 -0.5,469.5C 12.0933,315.115 79.4266,190.948 201.5,97C 281.379,38.9107 370.712,6.41073 469.5,-0.5 Z"/></g>
<g><path style="opacity:1" fill="#ffa96a" d="M 611.5,170.5 C 694.353,166.862 744.52,205.528 762,286.5C 764.967,311.789 765.3,337.123 763,362.5C 749.336,447.501 699.502,488.668 613.5,486C 556.568,477.401 519.735,445.567 503,390.5C 497.339,369.891 494.839,348.891 495.5,327.5C 493.067,282.971 505.9,243.637 534,209.5C 555.496,187.835 581.329,174.835 611.5,170.5 Z"/></g>
<g><path style="opacity:1" fill="#ffa96a" d="M 386.5,231.5 C 385.501,314.665 385.167,397.998 385.5,481.5C 361.167,481.5 336.833,481.5 312.5,481.5C 312.5,398.167 312.5,314.833 312.5,231.5C 282.167,231.5 251.833,231.5 221.5,231.5C 221.5,212.5 221.5,193.5 221.5,174.5C 307.167,174.5 392.833,174.5 478.5,174.5C 478.5,193.5 478.5,212.5 478.5,231.5C 447.833,231.5 417.167,231.5 386.5,231.5 Z"/></g>
<g><path style="opacity:1" fill="#fffefe" d="M 619.5,228.5 C 648.389,225.354 668.555,237.021 680,263.5C 684.159,273.784 686.826,284.45 688,295.5C 690.954,324.403 689.621,353.069 684,381.5C 679.883,397.585 671.383,410.752 658.5,421C 638.096,431.552 618.096,430.885 598.5,419C 584.68,406.196 576.513,390.362 574,371.5C 569.333,341.833 569.333,312.167 574,282.5C 576.811,266.044 583.978,251.877 595.5,240C 602.673,234.245 610.673,230.412 619.5,228.5 Z"/></g>
<g><path style="opacity:1" fill="#ffddc5" d="M 221.5,231.5 C 251.833,231.5 282.167,231.5 312.5,231.5C 312.5,314.833 312.5,398.167 312.5,481.5C 312.5,481.833 312.5,482.167 312.5,482.5C 311.501,399.335 311.167,316.002 311.5,232.5C 281.329,232.831 251.329,232.498 221.5,231.5 Z"/></g>
<g><path style="opacity:1" fill="#ffb987" d="M 386.5,231.5 C 386.5,315.167 386.5,398.833 386.5,482.5C 361.833,482.5 337.167,482.5 312.5,482.5C 312.5,482.167 312.5,481.833 312.5,481.5C 336.833,481.5 361.167,481.5 385.5,481.5C 385.167,397.998 385.501,314.665 386.5,231.5 Z"/></g>
<g><path style="opacity:1" fill="#e65728" d="M 627.5,512.5 C 704.497,509.689 752.997,545.356 773,619.5C 778.217,649.383 778.883,679.383 775,709.5C 759.842,791.988 710.342,831.488 626.5,828C 578.095,821.73 543.595,796.563 523,752.5C 509.798,718.034 505.132,682.367 509,645.5C 511.208,609.777 523.874,578.443 547,551.5C 569.518,529.491 596.351,516.491 627.5,512.5 Z"/></g>
<g><path style="opacity:1" fill="#e65728" d="M 237.5,516.5 C 277.852,516.08 318.186,516.58 358.5,518C 422.632,529.474 461.799,566.974 476,630.5C 478.888,654.461 479.221,678.461 477,702.5C 464.544,773.957 422.377,814.457 350.5,824C 312.835,824.5 275.168,824.667 237.5,824.5C 237.5,721.833 237.5,619.167 237.5,516.5 Z"/></g>
<g><path style="opacity:1" fill="#fefefd" d="M 634.5,570.5 C 667.909,569.301 688.742,584.967 697,617.5C 703.965,651.085 704.299,684.752 698,718.5C 694.821,735.32 686.988,749.487 674.5,761C 658.961,770.864 642.295,773.197 624.5,768C 606.145,759.969 594.645,746.135 590,726.5C 582.549,692.709 581.549,658.709 587,624.5C 589.811,608.044 596.978,593.877 608.5,582C 616.268,575.919 624.935,572.086 634.5,570.5 Z"/></g>
<g><path style="opacity:1" fill="#fefefe" d="M 311.5,574.5 C 369.012,566.813 399.512,591.813 403,649.5C 404.306,670.622 403.306,691.622 400,712.5C 396.965,729.411 389.131,743.578 376.5,755C 366.454,762.571 355.121,766.571 342.5,767C 332.172,767.5 321.839,767.666 311.5,767.5C 311.5,703.167 311.5,638.833 311.5,574.5 Z"/></g>
</svg>
