<svg xmlns="http://www.w3.org/2000/svg" version="1.1" xmlns:xlink="http://www.w3.org/1999/xlink" xmlns:svgjs="http://svgjs.dev/svgjs" width="1000" height="1260" viewBox="0 0 1000 1260"><g transform="matrix(1,0,0,1,0.5539237853848249,0.5101214574898449)"><svg viewBox="0 0 196 247" data-background-color="#ffffff" preserveAspectRatio="xMidYMid meet" height="1260" width="1000" xmlns="http://www.w3.org/2000/svg" xmlns:xlink="http://www.w3.org/1999/xlink"><g id="tight-bounds" transform="matrix(1,0,0,1,-0.10856871232826393,-0.09999999999999432)"><svg viewBox="0 0 196.21713777426368 247.2" height="247.2" width="196.21713777426368"><g><svg viewBox="0 0 196.21713777426368 247.2" height="247.2" width="196.21713777426368"><g><svg viewBox="0 0 196.21713777426368 247.2" height="247.2" width="196.21713777426368"><g id="textblocktransform"><svg viewBox="0 0 196.21713777426368 247.2" height="247.2" width="196.21713777426368" id="textblock"><g><svg viewBox="0 0 196.21713777426368 247.2" height="247.2" width="196.21713777426368"><g transform="matrix(1,0,0,1,0,0)"><svg width="196.21713777426368" viewBox="0.880000114440918 -36.040000915527344 64.2300033569336 76.05000305175781" height="247.2" data-palette-color="#ffa96a"><svg></svg><svg></svg><g class="wordmark-text-0" data-fill-palette-color="primary" id="text-0"><path xmlns="http://www.w3.org/2000/svg" d="M30.59-35.55v6.62h-10.67v28.93h-8.57v-28.93h-10.47v-6.62zM63.62-18.68v1.64c0 3.467-0.643 6.533-1.93 9.2-1.28 2.673-3.107 4.73-5.48 6.17-2.367 1.44-5.063 2.16-8.09 2.16-3.027 0-5.713-0.697-8.06-2.09-2.34-1.393-4.167-3.383-5.48-5.97-1.307-2.587-1.993-5.557-2.06-8.91v0-2c0-3.487 0.64-6.56 1.92-9.22 1.273-2.66 3.103-4.713 5.49-6.16 2.387-1.453 5.1-2.18 8.14-2.18v0c3.013 0 5.7 0.717 8.06 2.15 2.36 1.433 4.193 3.473 5.5 6.12 1.313 2.647 1.977 5.677 1.99 9.09zM54.91-16.89v-1.64c0-3.533-0.59-6.213-1.77-8.04-1.18-1.833-2.87-2.75-5.07-2.75v0c-4.293 0-6.563 3.223-6.81 9.67v0l-0.02 2.61c0 3.48 0.577 6.157 1.73 8.03 1.153 1.873 2.87 2.81 5.15 2.81v0c2.167 0 3.837-0.92 5.01-2.76 1.167-1.84 1.76-4.483 1.78-7.93z" fill="#ffa96a" fill-rule="nonzero" stroke="none" stroke-width="1" stroke-linecap="butt" stroke-linejoin="miter" stroke-miterlimit="10" stroke-dasharray="" stroke-dashoffset="0" font-family="none" font-weight="none" font-size="none" text-anchor="none" style="mix-blend-mode: normal" data-fill-palette-color="primary" opacity="1"></path><path xmlns="http://www.w3.org/2000/svg" d="M14.38 39.52h-11.69v-35.55h11.45c3.14 0 5.963 0.713 8.47 2.14 2.507 1.427 4.463 3.437 5.87 6.03 1.407 2.593 2.12 5.503 2.14 8.73v0 1.63c0 3.26-0.69 6.18-2.07 8.76-1.373 2.58-3.31 4.597-5.81 6.05-2.5 1.46-5.287 2.197-8.36 2.21zM14.14 10.59h-2.89v22.34h2.98c2.46 0 4.35-0.877 5.67-2.63 1.32-1.747 1.98-4.347 1.98-7.8v0-1.53c0-3.44-0.66-6.03-1.98-7.77-1.32-1.74-3.24-2.61-5.76-2.61zM65.11 20.84v1.64c0 3.467-0.643 6.533-1.93 9.2-1.287 2.673-3.113 4.73-5.48 6.17-2.367 1.44-5.063 2.16-8.09 2.16-3.027 0-5.713-0.697-8.06-2.09-2.34-1.393-4.167-3.383-5.48-5.97-1.307-2.587-1.993-5.557-2.06-8.91v0-2c0-3.487 0.64-6.56 1.92-9.22 1.273-2.66 3.103-4.713 5.49-6.16 2.387-1.453 5.1-2.18 8.14-2.18v0c3.013 0 5.7 0.717 8.06 2.15 2.36 1.433 4.193 3.473 5.5 6.12 1.313 2.647 1.977 5.677 1.99 9.09zM56.4 22.63v-1.64c0-3.533-0.59-6.213-1.77-8.04-1.18-1.833-2.87-2.75-5.07-2.75v0c-4.293 0-6.563 3.223-6.81 9.67v0l-0.03 2.61c0 3.48 0.58 6.157 1.74 8.03 1.153 1.873 2.87 2.81 5.15 2.81v0c2.167 0 3.833-0.92 5-2.76 1.173-1.84 1.77-4.483 1.79-7.93z" fill="#e65728" fill-rule="nonzero" stroke="none" stroke-width="1" stroke-linecap="butt" stroke-linejoin="miter" stroke-miterlimit="10" stroke-dasharray="" stroke-dashoffset="0" font-family="none" font-weight="none" font-size="none" text-anchor="none" style="mix-blend-mode: normal" data-fill-palette-color="secondary" opacity="1"></path></g></svg></g></svg></g></svg></g></svg></g></svg></g><defs></defs></svg><rect width="196.21713777426368" height="247.2" fill="none" stroke="none" visibility="hidden"></rect></g></svg></g></svg>