<?xml version="1.0" encoding="UTF-8"?>
<!DOCTYPE svg PUBLIC "-//W3C//DTD SVG 1.1//EN" "http://www.w3.org/Graphics/SVG/1.1/DTD/svg11.dtd">
<svg xmlns="http://www.w3.org/2000/svg" version="1.1" width="2118px" height="619px" style="shape-rendering:geometricPrecision; text-rendering:geometricPrecision; image-rendering:optimizeQuality; fill-rule:evenodd; clip-rule:evenodd" xmlns:xlink="http://www.w3.org/1999/xlink">
<g><path style="opacity:0.997" fill="#ffa969" d="M 741.5,24.5 C 816.619,19.4713 880.452,43.4713 933,96.5C 974.108,145.099 996.774,201.432 1001,265.5C 1004.69,311.165 1002.35,356.498 994,401.5C 982.55,454.249 957.717,499.416 919.5,537C 879.491,571.795 832.824,590.795 779.5,594C 710.897,599.452 650.564,580.119 598.5,536C 557.071,494.981 531.571,445.481 522,387.5C 515.884,342.963 514.884,298.297 519,253.5C 524.883,194.104 546.883,141.77 585,96.5C 627.932,52.6199 680.099,28.6199 741.5,24.5 Z M 745.5,130.5 C 796.687,126.833 831.52,148.833 850,196.5C 862.126,233.172 867.293,270.839 865.5,309.5C 866.682,342.685 863.182,375.352 855,407.5C 848.315,432.492 835.481,453.658 816.5,471C 794.316,486.973 769.649,492.64 742.5,488C 719.787,484.231 701.287,473.398 687,455.5C 670.501,431.013 660.501,404.013 657,374.5C 652.738,333.537 652.405,292.537 656,251.5C 658.358,220.759 667.692,192.426 684,166.5C 699.268,145.614 719.768,133.614 745.5,130.5 Z"/></g>
<g><path style="opacity:0.995" fill="#e65627" d="M 1830.5,24.5 C 1897.12,19.656 1956.12,38.156 2007.5,80C 2052.44,123.031 2079.6,175.531 2089,237.5C 2090.25,245.804 2091.25,254.137 2092,262.5C 2092.67,293.5 2092.67,324.5 2092,355.5C 2088.05,408.677 2071.39,457.344 2042,501.5C 1998.97,558.607 1941.47,589.44 1869.5,594C 1806.85,598.663 1750.51,582.33 1700.5,545C 1656.24,506.976 1628.07,459.142 1616,401.5C 1605.03,341.9 1604.7,282.233 1615,222.5C 1625.16,169.007 1649.32,123.174 1687.5,85C 1728.35,48.9151 1776.01,28.7484 1830.5,24.5 Z M 1835.5,130.5 C 1880.55,125.605 1913.72,142.938 1935,182.5C 1947.98,211.061 1954.98,241.061 1956,272.5C 1956.67,296.833 1956.67,321.167 1956,345.5C 1954.85,374.568 1948.85,402.568 1938,429.5C 1911.56,483.123 1869.73,500.623 1812.5,482C 1789.49,470.659 1772.99,453.159 1763,429.5C 1751.75,400.926 1745.75,371.26 1745,340.5C 1744,311.125 1744.66,281.791 1747,252.5C 1749.12,229.241 1754.78,206.908 1764,185.5C 1778.25,154.482 1802.09,136.149 1835.5,130.5 Z"/></g>
<g><path style="opacity:0.997" fill="#ffa869" d="M 24.5,32.5 C 178.833,32.5 333.167,32.5 487.5,32.5C 487.5,67.1667 487.5,101.833 487.5,136.5C 432.167,136.5 376.833,136.5 321.5,136.5C 321.5,286.833 321.5,437.167 321.5,587.5C 276.5,587.5 231.5,587.5 186.5,587.5C 186.5,437.167 186.5,286.833 186.5,136.5C 132.5,136.5 78.5,136.5 24.5,136.5C 24.5,101.833 24.5,67.1667 24.5,32.5 Z"/></g>
<g><path style="opacity:0.993" fill="#e55627" d="M 1119.5,31.5 C 1180.17,31.3333 1240.83,31.5 1301.5,32C 1388.4,32.5319 1457.57,67.3653 1509,136.5C 1543.13,189.177 1558.63,247.011 1555.5,310C 1559.05,382.679 1538.22,447.179 1493,503.5C 1450.5,550.336 1397.67,577.502 1334.5,585C 1262.85,586.467 1191.19,586.967 1119.5,586.5C 1119.5,401.5 1119.5,216.5 1119.5,31.5 Z M 1254.5,136.5 C 1352.3,122.188 1406.47,163.855 1417,261.5C 1418.56,289.479 1418.89,317.479 1418,345.5C 1416.85,376.779 1408.85,406.112 1394,433.5C 1374.28,464.79 1345.78,481.29 1308.5,483C 1290.5,483.5 1272.5,483.667 1254.5,483.5C 1254.5,367.833 1254.5,252.167 1254.5,136.5 Z"/></g>
</svg>
